<?xml version="1.0" encoding="utf-8"?>
<!-- Generator: Adobe Illustrator 28.3.0, SVG Export Plug-In . SVG Version: 6.00 Build 0)  -->
<svg version="1.1" id="logo" xmlns="http://www.w3.org/2000/svg" xmlns:xlink="http://www.w3.org/1999/xlink" x="0px" y="0px"
	 viewBox="0 0 738.1 738.1" style="enable-background:new 0 0 738.1 738.1;" xml:space="preserve">
<style type="text/css">
	.st0{fill:url(#SVGID_1_);}
	.st1{fill:#FFFFFF;}
</style>
<g>
	<linearGradient id="SVGID_1_" gradientUnits="userSpaceOnUse" x1="0" y1="369.0505" x2="738.1011" y2="369.0505">
		<stop  offset="0" style="stop-color:#1E9EB9"/>
		<stop  offset="0.12" style="stop-color:#198FA9"/>
		<stop  offset="0.52" style="stop-color:#0C637C"/>
		<stop  offset="0.82" style="stop-color:#044861"/>
		<stop  offset="1" style="stop-color:#013F57"/>
	</linearGradient>
	<circle class="st0" cx="369.1" cy="369.1" r="369.1"/>
	<g>
		<g>
			<path class="st1" d="M133.7,322.1v30.5h72.9v29.9h-72.9V445h-32.7V308.8c0-1.8,0.3-3.6,1-5.2c0.7-1.6,1.6-3.1,2.8-4.3
				c1.2-1.2,2.6-2.2,4.3-2.9c1.6-0.7,3.4-1,5.3-1l96.2-0.6v27.3L133.7,322.1L133.7,322.1z"/>
			<path class="st1" d="M279.1,335.3l29.4-40.6h46.6l-55.6,77l55.8,73.3h-45.3l-28.9-53l-42.9,53H175l85.2-80.6l-50.3-69.7h44.8
				L279.1,335.3L279.1,335.3z"/>
			<path class="st1" d="M573.7,337.9l31-43.2h36.1l-43.6,71.5l55.3,78.8h-42.3l-32.9-51l-31.1,51H499l61.3-80.6L510,294.7h44.8
				L573.7,337.9L573.7,337.9z"/>
			<path class="st1" d="M505.7,445h-35.1v-89.8L431.9,403h-3.4l-38.8-47.7V445H354V294.7h32.9l43.7,54l43.9-54h31.1L505.7,445
				L505.7,445z"/>
		</g>
		<g>
			<path class="st1" d="M658.5,297.8h-4.6v9.5h-3.8v-9.5h-4.6v-3.1h13L658.5,297.8L658.5,297.8z"/>
			<path class="st1" d="M675.3,307.3h-3.8V300l-3.4,4.2h-0.3l-3.4-4.2v7.3h-3.7v-12.6h3.4l3.9,4.7l3.9-4.7h3.4V307.3z"/>
		</g>
	</g>
</g>
</svg>
